<svg width="256" height="86" viewBox="0 0 256 86" fill="none" xmlns="http://www.w3.org/2000/svg">
<rect width="256" height="86" fill="white"/>
<path d="M91.6634 60.9939C90.0103 60.9939 88.6289 60.6769 87.5193 60.0428C86.4097 59.3861 85.5718 58.435 85.0057 57.1895C84.4395 55.944 84.1225 54.4154 84.0546 52.6038L88.3685 51.7546C88.4138 52.819 88.5383 53.7587 88.7421 54.574C88.9686 55.3892 89.297 56.0233 89.7272 56.4762C90.1801 56.9064 90.7689 57.1216 91.4936 57.1216C92.3088 57.1216 92.8862 56.8838 93.2259 56.4082C93.5656 55.91 93.7354 55.2873 93.7354 54.54C93.7354 53.3398 93.4637 52.3547 92.9202 51.5848C92.3767 50.8148 91.6521 50.0449 90.7463 49.275L87.2815 46.2178C86.3078 45.38 85.5265 44.4515 84.9377 43.4325C84.3716 42.3908 84.0885 41.1113 84.0885 39.5941C84.0885 37.4201 84.7226 35.7444 85.9907 34.5668C87.2589 33.3893 88.9912 32.8005 91.1878 32.8005C92.4786 32.8005 93.5543 33.0043 94.4148 33.4119C95.2753 33.7969 95.9547 34.3404 96.4529 35.0424C96.9737 35.7444 97.3587 36.5483 97.6078 37.4541C97.8569 38.3373 98.0154 39.277 98.0834 40.2734L93.8034 41.0207C93.7581 40.1602 93.6562 39.3903 93.4977 38.7109C93.3618 38.0315 93.1014 37.4994 92.7164 37.1144C92.3541 36.7294 91.8106 36.537 91.0859 36.537C90.3386 36.537 89.7612 36.7861 89.3536 37.2843C88.9686 37.7598 88.7761 38.3599 88.7761 39.0846C88.7761 40.013 88.9686 40.783 89.3536 41.3944C89.7385 41.9832 90.2934 42.5946 91.018 43.2287L94.4488 46.2518C95.581 47.2029 96.5435 48.3239 97.3361 49.6146C98.1513 50.8828 98.5589 52.4227 98.5589 54.2343C98.5589 55.5477 98.2645 56.7139 97.6757 57.733C97.1096 58.752 96.3057 59.5559 95.264 60.1447C94.245 60.7109 93.0448 60.9939 91.6634 60.9939Z" fill="#FD5734"/>
<path d="M110.124 60.9939C108.177 60.9939 106.625 60.6316 105.471 59.9069C104.316 59.1823 103.489 58.1406 102.991 56.7819C102.493 55.4232 102.244 53.8153 102.244 51.9584V41.6661C102.244 39.8092 102.493 38.224 102.991 36.9106C103.489 35.5745 104.316 34.5555 105.471 33.8535C106.625 33.1515 108.177 32.8005 110.124 32.8005C112.117 32.8005 113.679 33.1515 114.812 33.8535C115.967 34.5555 116.793 35.5745 117.291 36.9106C117.812 38.224 118.073 39.8092 118.073 41.6661V51.9924C118.073 53.8267 117.812 55.4232 117.291 56.7819C116.793 58.118 115.967 59.1596 114.812 59.9069C113.679 60.6316 112.117 60.9939 110.124 60.9939ZM110.124 57.2914C110.962 57.2914 111.573 57.1102 111.958 56.7479C112.366 56.3856 112.638 55.8874 112.774 55.2533C112.91 54.6193 112.977 53.9286 112.977 53.1813V40.5112C112.977 39.7413 112.91 39.0506 112.774 38.4392C112.638 37.8277 112.366 37.3522 111.958 37.0125C111.573 36.6502 110.962 36.469 110.124 36.469C109.332 36.469 108.731 36.6502 108.324 37.0125C107.916 37.3522 107.644 37.8277 107.509 38.4392C107.373 39.0506 107.305 39.7413 107.305 40.5112V53.1813C107.305 53.9286 107.361 54.6193 107.475 55.2533C107.61 55.8874 107.882 56.3856 108.29 56.7479C108.697 57.1102 109.309 57.2914 110.124 57.2914Z" fill="#FD5734"/>
<path d="M122.924 60.6203V33.1062H129.513C131.37 33.1062 132.933 33.3326 134.201 33.7855C135.492 34.2158 136.466 34.9631 137.122 36.0274C137.802 37.0918 138.141 38.5411 138.141 40.3753C138.141 41.485 138.039 42.4814 137.836 43.3645C137.632 44.2477 137.281 45.0063 136.783 45.6404C136.307 46.2518 135.639 46.7274 134.778 47.067L138.617 60.6203H133.59L130.261 48.0181H127.951V60.6203H122.924ZM127.951 44.8591H129.513C130.487 44.8591 131.257 44.7232 131.823 44.4515C132.412 44.1571 132.831 43.7042 133.08 43.0928C133.329 42.4587 133.454 41.6548 133.454 40.6811C133.454 39.2997 133.193 38.2693 132.672 37.59C132.174 36.888 131.212 36.537 129.785 36.537H127.951V44.8591Z" fill="#FD5734"/>
<path d="M145.715 60.6203V36.8087H141.333V33.1062H155.056V36.8087H150.743V60.6203H145.715Z" fill="#FD5734"/>
<path d="M158.828 60.6203V33.1062H163.787V60.6203H158.828Z" fill="#FD5734"/>
<path d="M171.93 60.6203V36.8087H167.548V33.1062H181.271V36.8087H176.957V60.6203H171.93Z" fill="#FD5734"/>
<path d="M185.042 60.6203V33.1062H190.002V60.6203H185.042Z" fill="#FD5734"/>
<path d="M202.866 60.9939C200.919 60.9939 199.367 60.6316 198.212 59.9069C197.058 59.1823 196.231 58.1406 195.733 56.7819C195.235 55.4232 194.985 53.8153 194.985 51.9584V41.6661C194.985 39.8092 195.235 38.224 195.733 36.9106C196.231 35.5745 197.058 34.5555 198.212 33.8535C199.367 33.1515 200.919 32.8005 202.866 32.8005C204.859 32.8005 206.421 33.1515 207.554 33.8535C208.709 34.5555 209.535 35.5745 210.033 36.9106C210.554 38.224 210.815 39.8092 210.815 41.6661V51.9924C210.815 53.8267 210.554 55.4232 210.033 56.7819C209.535 58.118 208.709 59.1596 207.554 59.9069C206.421 60.6316 204.859 60.9939 202.866 60.9939ZM202.866 57.2914C203.704 57.2914 204.315 57.1102 204.7 56.7479C205.108 56.3856 205.38 55.8874 205.516 55.2533C205.651 54.6193 205.719 53.9286 205.719 53.1813V40.5112C205.719 39.7413 205.651 39.0506 205.516 38.4392C205.38 37.8277 205.108 37.3522 204.7 37.0125C204.315 36.6502 203.704 36.469 202.866 36.469C202.073 36.469 201.473 36.6502 201.066 37.0125C200.658 37.3522 200.386 37.8277 200.251 38.4392C200.115 39.0506 200.047 39.7413 200.047 40.5112V53.1813C200.047 53.9286 200.103 54.6193 200.217 55.2533C200.352 55.8874 200.624 56.3856 201.032 56.7479C201.439 57.1102 202.051 57.2914 202.866 57.2914Z" fill="#FD5734"/>
<path d="M215.666 60.6203V33.1062H219.164L225.856 48.7994V33.1062H230V60.6203H226.671L219.946 44.1798V60.6203H215.666Z" fill="#FD5734"/>
<path fill-rule="evenodd" clip-rule="evenodd" d="M41.9858 62.7135C41.9858 64.1323 43.136 65.2825 44.5548 65.2825C45.9737 65.2825 47.1239 64.1323 47.1239 62.7135C47.1239 61.2947 45.9737 60.1445 44.5548 60.1445C43.136 60.1445 41.9858 61.2947 41.9858 62.7135ZM44.5548 72.5614C43.136 72.5614 41.9858 71.4112 41.9858 69.9924C41.9858 68.5736 43.136 67.4234 44.5548 67.4234C45.9737 67.4234 47.1239 68.5736 47.1239 69.9924C47.1239 71.4112 45.9737 72.5614 44.5548 72.5614ZM52.2619 72.5614C50.843 72.5614 49.6929 71.4112 49.6929 69.9924C49.6929 68.5736 50.843 67.4234 52.2619 67.4234C53.6807 67.4234 54.8309 68.5736 54.8309 69.9924C54.8309 71.4112 53.6807 72.5614 52.2619 72.5614ZM52.2619 65.2825C50.843 65.2825 49.6929 64.1323 49.6929 62.7135C49.6929 61.2947 50.843 60.1445 52.2619 60.1445C53.6807 60.1445 54.8309 61.2947 54.8309 62.7135C54.8309 64.1323 53.6807 65.2825 52.2619 65.2825Z" fill="#720046"/>
<path fill-rule="evenodd" clip-rule="evenodd" d="M48.4085 50.2967C48.4085 51.7155 49.5587 52.8657 50.9775 52.8657C52.3963 52.8657 53.5465 51.7155 53.5465 50.2967C53.5465 48.8778 52.3963 47.7277 50.9775 47.7277C49.5587 47.7277 48.4085 48.8778 48.4085 50.2967ZM39.4169 56.7192C39.4169 58.138 40.5671 59.2882 41.9859 59.2882C43.4048 59.2882 44.5549 58.138 44.5549 56.7192C44.5549 55.3004 43.4048 54.1502 41.9859 54.1502C40.5671 54.1502 39.4169 55.3004 39.4169 56.7192ZM52.2619 56.7192C52.2619 58.138 53.4121 59.2882 54.8309 59.2882C56.2498 59.2882 57.4 58.138 57.4 56.7192C57.4 55.3004 56.2498 54.1502 54.8309 54.1502C53.4121 54.1502 52.2619 55.3004 52.2619 56.7192ZM48.4085 59.2882C46.9896 59.2882 45.8395 58.138 45.8395 56.7192C45.8395 55.3004 46.9896 54.1502 48.4085 54.1502C49.8273 54.1502 50.9775 55.3004 50.9775 56.7192C50.9775 58.138 49.8273 59.2882 48.4085 59.2882ZM44.555 52.8657C43.1361 52.8657 41.986 51.7155 41.986 50.2967C41.986 48.8778 43.1361 47.7277 44.555 47.7277C45.9738 47.7277 47.124 48.8778 47.124 50.2967C47.124 51.7155 45.9738 52.8657 44.555 52.8657Z" fill="#820043"/>
<path fill-rule="evenodd" clip-rule="evenodd" d="M45.8394 43.0178C45.8394 44.4366 46.9895 45.5868 48.4084 45.5868C49.8272 45.5868 50.9774 44.4366 50.9774 43.0178C50.9774 41.599 49.8272 40.4488 48.4084 40.4488C46.9895 40.4488 45.8394 41.599 45.8394 43.0178ZM39.4168 43.8741C39.4168 45.2929 40.567 46.4431 41.9858 46.4431C43.4047 46.4431 44.5548 45.2929 44.5548 43.8741C44.5548 42.4553 43.4047 41.3051 41.9858 41.3051C40.567 41.3051 39.4168 42.4553 39.4168 43.8741ZM54.8309 46.015C53.4121 46.015 52.2619 44.8648 52.2619 43.446C52.2619 42.0271 53.4121 40.877 54.8309 40.877C56.2497 40.877 57.3999 42.0271 57.3999 43.446C57.3999 44.8648 56.2497 46.015 54.8309 46.015ZM54.8308 50.2967C54.8308 51.7155 55.981 52.8657 57.3998 52.8657C58.8186 52.8657 59.9688 51.7155 59.9688 50.2967C59.9688 48.8778 58.8186 47.7276 57.3998 47.7276C55.981 47.7276 54.8308 48.8778 54.8308 50.2967ZM38.1324 54.1501C36.7135 54.1501 35.5634 53 35.5634 51.5811C35.5634 50.1623 36.7135 49.0121 38.1324 49.0121C39.5512 49.0121 40.7014 50.1623 40.7014 51.5811C40.7014 53 39.5512 54.1501 38.1324 54.1501Z" fill="#900D3F"/>
<path fill-rule="evenodd" clip-rule="evenodd" d="M49.6929 30.1728C49.6929 31.5916 50.843 32.7418 52.2619 32.7418C53.6807 32.7418 54.8309 31.5916 54.8309 30.1728C54.8309 28.7539 53.6807 27.6038 52.2619 27.6038C50.843 27.6038 49.6929 28.7539 49.6929 30.1728ZM50.9774 39.1643C49.5586 39.1643 48.4084 38.0141 48.4084 36.5953C48.4084 35.1765 49.5586 34.0263 50.9774 34.0263C52.3962 34.0263 53.5464 35.1765 53.5464 36.5953C53.5464 38.0141 52.3962 39.1643 50.9774 39.1643ZM61.2534 46.8713C59.8345 46.8713 58.6844 45.7211 58.6844 44.3023C58.6844 42.8835 59.8345 41.7333 61.2534 41.7333C62.6722 41.7333 63.8224 42.8835 63.8224 44.3023C63.8224 45.7211 62.6722 46.8713 61.2534 46.8713ZM44.5549 39.1643C43.136 39.1643 41.9858 38.0141 41.9858 36.5953C41.9858 35.1765 43.136 34.0263 44.5549 34.0263C45.9737 34.0263 47.1239 35.1765 47.1239 36.5953C47.1239 38.0141 45.9737 39.1643 44.5549 39.1643ZM54.8309 37.0235C54.8309 38.4423 55.981 39.5925 57.3999 39.5925C58.8187 39.5925 59.9689 38.4423 59.9689 37.0235C59.9689 35.6046 58.8187 34.4545 57.3999 34.4545C55.981 34.4545 54.8309 35.6046 54.8309 37.0235ZM34.707 48.1559C33.2882 48.1559 32.138 47.0057 32.138 45.5869C32.138 44.168 33.2882 43.0178 34.707 43.0178C36.1258 43.0178 37.276 44.168 37.276 45.5869C37.276 47.0057 36.1258 48.1559 34.707 48.1559Z" fill="#C70039"/>
<path fill-rule="evenodd" clip-rule="evenodd" d="M53.5464 25.4629C52.1276 25.4629 50.9774 24.3127 50.9774 22.8939C50.9774 21.4751 52.1276 20.3249 53.5464 20.3249C54.9653 20.3249 56.1154 21.4751 56.1154 22.8939C56.1154 24.3127 54.9653 25.4629 53.5464 25.4629ZM62.538 39.1643C62.538 40.5831 63.6881 41.7333 65.107 41.7333C66.5258 41.7333 67.676 40.5831 67.676 39.1643C67.676 37.7455 66.5258 36.5953 65.107 36.5953C63.6881 36.5953 62.538 37.7455 62.538 39.1643ZM27 40.4488C27 41.8676 28.1502 43.0178 29.569 43.0178C30.9878 43.0178 32.138 41.8676 32.138 40.4488C32.138 39.03 30.9878 37.8798 29.569 37.8798C28.1502 37.8798 27 39.03 27 40.4488ZM40.7014 29.3164C40.7014 30.7353 41.8516 31.8854 43.2705 31.8854C44.6893 31.8854 45.8395 30.7353 45.8395 29.3164C45.8395 27.8976 44.6893 26.7474 43.2705 26.7474C41.8516 26.7474 40.7014 27.8976 40.7014 29.3164ZM59.969 34.0263C58.5501 34.0263 57.4 32.8761 57.4 31.4573C57.4 30.0385 58.5501 28.8883 59.969 28.8883C61.3878 28.8883 62.538 30.0385 62.538 31.4573C62.538 32.8761 61.3878 34.0263 59.969 34.0263Z" fill="#FF0025"/>
<path fill-rule="evenodd" clip-rule="evenodd" d="M54.8309 18.184C53.4121 18.184 52.2619 17.0339 52.2619 15.615C52.2619 14.1962 53.4121 13.046 54.8309 13.046C56.2497 13.046 57.3999 14.1962 57.3999 15.615C57.3999 17.0339 56.2497 18.184 54.8309 18.184ZM70.2449 36.5953C68.8261 36.5953 67.6759 35.4451 67.6759 34.0262C67.6759 32.6074 68.8261 31.4572 70.2449 31.4572C71.6637 31.4572 72.8139 32.6074 72.8139 34.0262C72.8139 35.4451 71.6637 36.5953 70.2449 36.5953ZM39.845 22.0376C39.845 23.4564 40.9952 24.6066 42.414 24.6066C43.8329 24.6066 44.983 23.4564 44.983 22.0376C44.983 20.6187 43.8329 19.4686 42.414 19.4686C40.9952 19.4686 39.845 20.6187 39.845 22.0376ZM62.5379 27.6038C61.1191 27.6038 59.9689 26.4536 59.9689 25.0347C59.9689 23.6159 61.1191 22.4657 62.5379 22.4657C63.9567 22.4657 65.1069 23.6159 65.1069 25.0347C65.1069 26.4536 63.9567 27.6038 62.5379 27.6038Z" fill="#FD5734"/>
</svg>
